<svg width="87" height="87" viewBox="0 0 87 87" fill="none" xmlns="http://www.w3.org/2000/svg">
<path d="M84.1111 19.4251C83.8689 15.118 82.0488 11.051 78.9984 8.00056C75.948 4.95016 71.881 3.13008 67.5739 2.88785C51.5377 1.9816 35.4631 1.9816 19.4268 2.88785C15.1197 3.13022 11.0526 4.95032 8.00212 8.00067C4.9516 11.051 3.13128 15.118 2.88867 19.4251C1.98242 35.4617 1.98242 51.5367 2.88867 67.5733C3.13132 71.8804 4.95165 75.9473 8.00216 78.9977C11.0527 82.048 15.1197 83.8681 19.4268 84.1105C35.463 85.019 51.5377 85.019 67.5739 84.1105C71.881 83.8683 75.948 82.0482 78.9984 78.9978C82.0488 75.9474 83.8689 71.8804 84.1111 67.5733C85.0174 51.5367 85.0174 35.4617 84.1111 19.4251V19.4251Z" fill="url(#paint0_linear_16_1897)"/>
<g clip-path="url(#clip0_16_1897)">
<path fill-rule="evenodd" clip-rule="evenodd" d="M69.2727 25.9111C69.5656 25.9111 69.8399 26.053 70.0096 26.2914C70.1798 26.5297 70.2237 26.8363 70.1277 27.1131L64.9951 41.9267C64.2274 44.1392 62.1427 45.623 59.8003 45.624H32.1351L32.878 50.3173C33.1548 52.1127 34.7037 53.4354 36.5203 53.4283H63.5325C64.032 53.4283 64.4375 53.8338 64.4375 54.3333C64.4375 54.8333 64.032 55.2383 63.5325 55.2383H36.5203C33.8118 55.2494 31.5028 53.2773 31.0902 50.6006L26.7202 22.9955C26.4434 21.2001 24.8945 19.8775 23.0779 19.8845H17.5574C17.0574 19.8845 16.6523 19.4795 16.6523 18.9795C16.6523 18.4795 17.0574 18.0745 17.5574 18.0745H23.0779C25.7864 18.0639 28.0954 20.0355 28.508 22.7122L29.014 25.9111H69.2727ZM61.7022 63.0982C61.98 65.9027 59.9316 68.4016 57.1266 68.6794C54.3222 68.9571 51.8238 66.9082 51.546 64.1038C51.2683 61.2993 53.3167 58.8004 56.1211 58.5226C58.9255 58.2449 61.4244 60.2938 61.7022 63.0982ZM42.8307 63.6006C42.8307 60.7825 40.5459 58.4978 37.7279 58.4978C34.9093 58.4978 32.6245 60.782 32.6245 63.6006C32.6245 66.4192 34.9093 68.704 37.7279 68.704C40.5444 68.7009 42.8277 66.4177 42.8307 63.6006Z" fill="url(#paint1_linear_16_1897)"/>
</g>
<defs>
<linearGradient id="paint0_linear_16_1897" x1="43.4999" y1="2.20762" x2="43.4999" y2="82.8168" gradientUnits="userSpaceOnUse">
<stop stop-color="#FFEDFF"/>
<stop offset="1" stop-color="#FFC3F9"/>
</linearGradient>
<linearGradient id="paint1_linear_16_1897" x1="43.415" y1="18.0744" x2="43.415" y2="68.7046" gradientUnits="userSpaceOnUse">
<stop stop-color="#B444FF"/>
<stop offset="1" stop-color="#F582FF"/>
</linearGradient>
<clipPath id="clip0_16_1897">
<rect width="53.5254" height="53.5254" fill="white" transform="translate(16.6523 16.6523)"/>
</clipPath>
</defs>
</svg>
