<svg width="87" height="86" viewBox="0 0 87 86" fill="none" xmlns="http://www.w3.org/2000/svg">
<path d="M84.1111 19.202C83.8689 14.9444 82.0488 10.9241 78.9984 7.90872C75.948 4.89335 71.881 3.09416 67.5739 2.85466C51.5377 1.95883 35.4631 1.95883 19.4268 2.85466C15.1197 3.09429 11.0526 4.8935 8.0021 7.90882C4.95159 10.9241 3.13128 14.9444 2.88867 19.202C1.98242 35.0542 1.98242 50.9444 2.88867 66.7966C3.13128 71.0542 4.9516 75.0744 8.00212 78.0897C11.0526 81.105 15.1197 82.9042 19.4268 83.1437C35.463 84.0416 51.5377 84.0416 67.5739 83.1437C71.881 82.9043 75.948 81.1051 78.9984 78.0898C82.0488 75.0745 83.8689 71.0542 84.1111 66.7966C85.0174 50.9444 85.0174 35.0542 84.1111 19.202Z" fill="url(#paint0_linear_16_2252)"/>
<g clip-path="url(#clip0_16_2252)">
<path fill-rule="evenodd" clip-rule="evenodd" d="M53.4251 16.4609C55.3425 16.4633 56.8962 17.9987 56.8986 19.8935V20.5769H30.2019V19.894C30.2043 17.9987 31.758 16.4633 33.6749 16.4609H53.4251ZM57.4097 22.2828H29.6551L24.8028 26.3478H62.0905L57.4097 22.2828ZM36.8786 46.5734C36.8786 43.0051 39.8053 40.1121 43.4151 40.1121C47.0235 40.1159 49.9478 43.0065 49.9516 46.5734C49.9516 50.1418 47.0249 53.0348 43.4151 53.0348C39.8053 53.0348 36.8786 50.1418 36.8786 46.5734ZM42.8673 48.7755L46.6968 45.6958H46.6978C47.0673 45.3981 47.1232 44.8605 46.8226 44.4952C46.5215 44.1295 45.9776 44.0742 45.6081 44.3719L42.4323 46.9258L41.3344 45.6558C41.1349 45.421 40.8237 45.3095 40.5183 45.3648C40.2128 45.4195 39.9609 45.6324 39.8583 45.9215C39.7557 46.211 39.8178 46.533 40.0216 46.7644L41.6658 48.6679C41.9703 49.0203 42.5036 49.0684 42.8673 48.7755ZM33.6749 69.3712C31.758 69.3688 30.2043 67.8335 30.2019 65.9386V61.1902H56.8986V65.9381C56.8962 67.8335 55.3425 69.3688 53.4251 69.3712H33.6749ZM46.1944 64.4632H40.9071H40.9066C40.4296 64.4632 40.0433 64.8456 40.0433 65.3166C40.0433 65.7881 40.4296 66.17 40.9066 66.17H46.1944C46.6713 66.17 47.0577 65.7881 47.0577 65.3166C47.0577 64.8456 46.6713 64.4632 46.1944 64.4632ZM55.9934 32.9448C54.9325 34.1349 53.4049 34.8169 51.8001 34.8169C50.1954 34.8169 48.6677 34.1349 47.6069 32.9448C46.548 34.1378 45.0194 34.8202 43.4137 34.8169C41.808 34.8202 40.2793 34.1378 39.2204 32.9443C38.1596 34.1344 36.6324 34.8159 35.0277 34.8159C33.4234 34.8159 31.8962 34.1344 30.8349 32.9443C30.6408 33.1634 30.4293 33.3672 30.2019 33.553V59.4837H56.8986V33.7615C56.5671 33.523 56.2636 33.2491 55.9934 32.9448ZM43.4151 54.7415C38.8514 54.7415 35.152 51.0846 35.152 46.5733C35.152 42.0621 38.8514 38.4052 43.4151 38.4052C47.9788 38.4052 51.6782 42.0621 51.6782 46.5733C51.6729 51.0822 47.9764 54.7363 43.4151 54.7415ZM23.3123 31.2234V28.055H63.518V31.2219C62.8088 32.4225 61.4951 33.1459 60.0893 33.1106C58.6835 33.0754 57.4088 32.2868 56.7623 31.0524C56.6144 30.7676 56.3181 30.5881 55.9943 30.5876C55.6706 30.5871 55.3738 30.7652 55.2254 31.0495C54.5625 32.3158 53.2411 33.1106 51.7987 33.1106C50.3568 33.1101 49.0353 32.3149 48.3734 31.0481C48.225 30.7648 47.9287 30.5871 47.6059 30.5871C47.2832 30.5876 46.9874 30.7657 46.839 31.0491C46.1766 32.3153 44.8551 33.1101 43.4132 33.1101C41.9713 33.1101 40.6503 32.3153 39.9879 31.0491C39.985 31.0443 39.9821 31.0391 39.9792 31.0338C39.9763 31.0286 39.9734 31.0233 39.9705 31.0186C39.814 30.7467 39.5196 30.5814 39.2031 30.5871C38.8871 30.5933 38.5994 30.7705 38.4535 31.0481C37.7911 32.3139 36.4696 33.1092 35.0277 33.1092C33.5858 33.1092 32.2643 32.3139 31.6019 31.0481C31.4535 30.7648 31.1577 30.5871 30.8349 30.5876C30.5122 30.5876 30.2164 30.7657 30.068 31.0495C29.4214 32.2834 28.1472 33.0725 26.7419 33.1087C25.3366 33.1449 24.0224 32.4225 23.3123 31.2234Z" fill="url(#paint1_linear_16_2252)"/>
</g>
<defs>
<linearGradient id="paint0_linear_16_2252" x1="43.4999" y1="1.86691" x2="43.4999" y2="82.3826" gradientUnits="userSpaceOnUse">
<stop stop-color="#E8F5FF"/>
<stop offset="1" stop-color="#B4DFFF"/>
</linearGradient>
<linearGradient id="paint1_linear_16_2252" x1="43.4151" y1="16.4609" x2="43.4151" y2="69.3712" gradientUnits="userSpaceOnUse">
<stop stop-color="#466AFF"/>
<stop offset="1" stop-color="#06B8FF"/>
</linearGradient>
<clipPath id="clip0_16_2252">
<rect width="53.5254" height="52.9102" fill="white" transform="translate(16.6523 16.4609)"/>
</clipPath>
</defs>
</svg>
