<svg width="87" height="85" viewBox="0 0 87 85" fill="none" xmlns="http://www.w3.org/2000/svg">
<path d="M84.1111 18.9785C83.8689 14.7704 82.0488 10.7969 78.9984 7.81658C75.948 4.83627 71.881 3.058 67.5739 2.82129C51.5377 1.93587 35.4631 1.93587 19.4268 2.82129C15.1197 3.05813 11.0526 4.83642 8.0021 7.81668C4.95159 10.7969 3.13128 14.7704 2.88867 18.9785C1.98242 34.6464 1.98242 50.3518 2.88867 66.0197C3.13128 70.2278 4.9516 74.2012 8.00212 77.1815C11.0526 80.1617 15.1197 81.9399 19.4268 82.1767C35.463 83.0647 51.5377 83.0647 67.5739 82.1767C71.881 81.9401 75.948 80.1618 78.9984 77.1816C82.0488 74.2013 83.8689 70.2278 84.1111 66.0197C85.0174 50.3518 85.0174 34.6464 84.1111 18.9785Z" fill="url(#paint0_linear_16_2078)"/>
<g clip-path="url(#clip0_16_2078)">
<path fill-rule="evenodd" clip-rule="evenodd" d="M43.492 16.3642L63.749 26.9103C64.017 27.0498 64.1846 27.3225 64.1846 27.6193V41.1213C64.1837 52.5111 57.1905 62.789 46.4417 67.1988L43.3612 68.4985C43.1523 68.5868 42.915 68.5864 42.7066 68.4976L39.9727 67.3333C29.4212 62.8254 22.5984 52.6465 22.5864 41.3954V27.6193C22.5864 27.3261 22.7503 27.0556 23.0138 26.9148L42.7098 16.3687C42.9531 16.2382 43.2473 16.2364 43.492 16.3642ZM54.1573 53.8107C55.152 53.8098 55.958 53.0223 55.959 52.0505V38.814C55.959 38.7795 55.9562 38.7449 55.9516 38.7108L55.9475 38.6862C55.9429 38.6566 55.9365 38.627 55.9282 38.5983C55.9268 38.5938 55.9259 38.5898 55.925 38.5853C55.9144 38.5521 55.902 38.5193 55.8878 38.4875C55.8855 38.4826 55.8828 38.4776 55.8805 38.4727C55.8672 38.4449 55.852 38.4184 55.8359 38.3924C55.8347 38.3905 55.8338 38.3886 55.8328 38.3868C55.8319 38.3852 55.8311 38.3836 55.83 38.3821L51.5597 31.8381C51.2301 31.3295 50.6568 31.0223 50.0408 31.0237H36.7302C36.1146 31.0223 35.5409 31.3295 35.2113 31.8381L30.941 38.3821C30.9394 38.3843 30.9382 38.3868 30.937 38.3893C30.9365 38.3903 30.9361 38.3914 30.9355 38.3924C30.919 38.4184 30.9039 38.4449 30.8905 38.4727C30.8894 38.4752 30.8881 38.4775 30.8869 38.4799C30.8856 38.4822 30.8843 38.4846 30.8832 38.4871C30.869 38.5189 30.8566 38.5516 30.8465 38.5853C30.8451 38.5898 30.8442 38.5938 30.8428 38.5983C30.8345 38.627 30.8281 38.6566 30.8235 38.6862L30.8194 38.7104C30.8148 38.7449 30.8125 38.779 30.812 38.814V52.0505C30.813 53.0223 31.619 53.8098 32.6137 53.8107H54.1573ZM42.5628 32.6305H36.73C36.6768 32.6305 36.6267 32.657 36.5983 32.7014L33.1345 38.0103H42.5628V32.6305ZM40.9245 52.2034H45.8462V45.4782L40.9245 43.4619V52.2034ZM50.0408 32.6305C50.0945 32.6305 50.144 32.657 50.173 32.7014L53.6367 38.0103H44.208V32.6305H50.0408ZM32.4572 52.0504C32.4572 52.1347 32.5274 52.2033 32.6137 52.2033H39.2796V42.2537C39.2796 41.9846 39.4173 41.7334 39.6468 41.5846C39.8758 41.4357 40.1664 41.4083 40.4202 41.5124L46.987 44.2027C47.2927 44.3278 47.4914 44.6198 47.4914 44.9436V52.2033H54.1573C54.2436 52.2033 54.3138 52.1347 54.3138 52.0504V39.6176H32.4572V52.0504Z" fill="url(#paint1_linear_16_2078)"/>
</g>
<defs>
<linearGradient id="paint0_linear_16_2078" x1="43.4999" y1="2.37291" x2="43.4999" y2="83.8666" gradientUnits="userSpaceOnUse">
<stop stop-color="#E8FFF2"/>
<stop offset="1" stop-color="#C8FFE9"/>
</linearGradient>
<linearGradient id="paint1_linear_16_2078" x1="43.3855" y1="16.2695" x2="43.3855" y2="68.5644" gradientUnits="userSpaceOnUse">
<stop stop-color="#18C19F"/>
<stop offset="1" stop-color="#8BF3AF"/>
</linearGradient>
<clipPath id="clip0_16_2078">
<rect width="53.5254" height="52.2949" fill="white" transform="translate(16.6523 16.2695)"/>
</clipPath>
</defs>
</svg>
