<svg width="87" height="86" viewBox="0 0 87 86" fill="none" xmlns="http://www.w3.org/2000/svg">
<path d="M84.1111 19.2018C83.8689 14.9442 82.0488 10.924 78.9984 7.90862C75.948 4.89328 71.881 3.09413 67.5739 2.85468C51.5377 1.95884 35.4631 1.95884 19.4268 2.85468C15.1197 3.09426 11.0526 4.89344 8.00212 7.90873C4.9516 10.924 3.13128 14.9442 2.88867 19.2018C1.98242 35.0541 1.98242 50.9443 2.88867 66.7966C3.13132 71.0542 4.95165 75.0744 8.00216 78.0897C11.0527 81.1049 15.1197 82.9041 19.4268 83.1438C35.463 84.0418 51.5377 84.0418 67.5739 83.1438C71.881 82.9043 75.948 81.1051 78.9984 78.0898C82.0488 75.0744 83.8689 71.0542 84.1111 66.7966C85.0174 50.9443 85.0174 35.0541 84.1111 19.2018Z" fill="url(#paint0_linear_16_1843)"/>
<g clip-path="url(#clip0_16_1843)">
<path fill-rule="evenodd" clip-rule="evenodd" d="M25.2612 30.5517L30.8964 36.4857L36.5317 30.5517C37.3363 29.7262 37.9624 28.7473 38.3723 27.675C38.7559 26.6562 38.918 25.5693 38.8486 24.4843C38.7159 22.4831 37.8549 20.5974 36.4248 19.175C34.96 17.723 32.9708 16.9068 30.8964 16.9068C28.822 16.9068 26.8334 17.723 25.3686 19.175C23.9385 20.5974 23.0775 22.4831 22.9448 24.4843C22.8749 25.5693 23.0376 26.6562 23.4205 27.675C23.8305 28.7473 24.4565 29.7262 25.2612 30.5517ZM30.8964 19.3771C33.5904 19.3771 35.7817 21.589 35.7817 24.3078C35.7817 27.0266 33.5904 29.2391 30.8964 29.2391C28.203 29.2391 26.0112 27.0271 26.0112 24.3084C26.0112 21.5896 28.203 19.3771 30.8964 19.3771ZM30.8964 27.1584C32.4299 27.1584 33.6768 25.88 33.6768 24.3084C33.6768 22.7368 32.4299 21.4584 30.8964 21.4584C29.3635 21.4584 28.1161 22.7362 28.1161 24.3084C28.1161 25.88 29.3635 27.1584 30.8964 27.1584ZM61.2688 40.4155C61.8162 40.4161 62.3383 40.6431 62.7089 41.0414L68.8363 47.64H47.2461V40.4155H61.2688ZM43.1866 25.6175H40.946C40.882 26.5644 40.6811 27.4974 40.3504 28.3885C39.843 29.725 39.066 30.9459 38.067 31.9758L31.6641 38.7173C31.4656 38.9269 31.1878 39.0459 30.897 39.0459C30.6063 39.0459 30.3285 38.9269 30.1294 38.7173L23.7271 31.9758C22.7275 30.9459 21.9505 29.725 21.4436 28.3885C21.113 27.4974 20.9121 26.5644 20.8475 25.6175H18.6069C17.528 25.6187 16.6535 26.4831 16.6523 27.5496V61.9921C16.6535 63.0586 17.528 63.9225 18.6069 63.9242H21.4037C21.9164 60.921 24.5476 58.7224 27.6286 58.7224C30.7103 58.7224 33.3414 60.921 33.8542 63.9242H45.1417V27.5496C45.1406 26.4831 44.2655 25.6187 43.1866 25.6175ZM59.202 69.1261C61.5272 69.1261 63.4119 67.2625 63.4119 64.9646C63.4119 62.6661 61.5272 60.8031 59.202 60.8031C56.8768 60.8031 54.9921 62.6661 54.9921 64.9646C54.9921 67.2625 56.8768 69.1261 59.202 69.1261ZM31.8379 64.9646C31.8379 67.2625 29.9532 69.1261 27.6281 69.1261C25.3029 69.1261 23.4182 67.2625 23.4182 64.9646C23.4182 62.6661 25.3029 60.8031 27.6281 60.8031C29.9532 60.8031 31.8379 62.6661 31.8379 64.9646ZM47.2461 63.9243V49.7208H70.1777V61.9921C70.1766 63.0586 69.3021 63.9225 68.2232 63.9243H65.4281C64.9154 60.921 62.2842 58.7224 59.2026 58.7224C56.1216 58.7224 53.4904 60.921 52.9777 63.9243H47.2461Z" fill="url(#paint1_linear_16_1843)"/>
</g>
<defs>
<linearGradient id="paint0_linear_16_1843" x1="43.4999" y1="1.79168" x2="43.4999" y2="83.8232" gradientUnits="userSpaceOnUse">
<stop stop-color="#FFEEF1"/>
<stop offset="1" stop-color="#FFC6CF"/>
</linearGradient>
<linearGradient id="paint1_linear_16_1843" x1="43.415" y1="14.585" x2="43.415" y2="69.1261" gradientUnits="userSpaceOnUse">
<stop stop-color="#FD4685"/>
<stop offset="1" stop-color="#FF9D8C"/>
</linearGradient>
<clipPath id="clip0_16_1843">
<rect width="53.5254" height="52.9102" fill="white" transform="translate(16.6523 16.4609)"/>
</clipPath>
</defs>
</svg>
