<svg width="87" height="86" viewBox="0 0 87 86" fill="none" xmlns="http://www.w3.org/2000/svg">
<path d="M84.1111 19.202C83.8689 14.9444 82.0488 10.9241 78.9984 7.90872C75.948 4.89335 71.881 3.09416 67.5739 2.85466C51.5377 1.95883 35.4631 1.95883 19.4268 2.85466C15.1197 3.09429 11.0526 4.8935 8.0021 7.90882C4.95159 10.9241 3.13128 14.9444 2.88867 19.202C1.98242 35.0542 1.98242 50.9444 2.88867 66.7966C3.13128 71.0542 4.9516 75.0744 8.00212 78.0897C11.0526 81.105 15.1197 82.9042 19.4268 83.1437C35.463 84.0416 51.5377 84.0416 67.5739 83.1437C71.881 82.9043 75.948 81.1051 78.9984 78.0898C82.0488 75.0745 83.8689 71.0542 84.1111 66.7966C85.0174 50.9444 85.0174 35.0542 84.1111 19.202Z" fill="url(#paint0_linear_16_2279)"/>
<g clip-path="url(#clip0_16_2279)">
<path fill-rule="evenodd" clip-rule="evenodd" d="M55.3628 16.4609H31.3988C29.6308 16.4629 28.1983 17.879 28.1963 19.6272V22.2819H58.5659V19.6267C58.5639 17.879 57.1308 16.4629 55.3628 16.4609ZM49.5061 42.9162C49.5061 46.2598 46.7636 48.9707 43.3811 48.9707C40.0001 48.9668 37.2602 46.2583 37.2562 42.9162C37.2562 39.5721 39.9981 36.8616 43.3811 36.8616C46.7636 36.8616 49.5061 39.5721 49.5061 42.9162ZM41.4641 41.9977C41.1441 41.6267 40.5803 41.5828 40.205 41.8997C39.8302 42.2165 39.7858 42.7738 40.1063 43.1448L41.666 44.9501C41.981 45.3147 42.5328 45.364 42.9091 45.0615L46.5408 42.1406C46.7895 41.9415 46.9122 41.6267 46.8618 41.3143C46.8115 41.0019 46.5961 40.7398 46.2966 40.628C45.9975 40.5156 45.6605 40.5698 45.4133 40.7704L42.4575 43.1472L41.4641 41.9977ZM31.3988 69.3714C29.6308 69.3694 28.1983 67.9528 28.1963 66.2051V60.4827H58.5659V66.2051C58.5639 67.9528 57.1308 69.3694 55.3628 69.3714H31.3988ZM46.9949 64.082H39.7668C39.2734 64.082 38.8736 64.4777 38.8736 64.965C38.8736 65.4528 39.2734 65.8479 39.7668 65.8479H46.9949C47.4883 65.8479 47.8881 65.4528 47.8881 64.965C47.8881 64.4777 47.4883 64.082 46.9949 64.082ZM58.5659 58.7167H28.1963V24.0479H58.5659V58.7167ZM32.2532 47.26L34.1418 46.6801C34.6128 46.5352 34.876 46.0405 34.7295 45.5744C34.5834 45.1088 34.0825 44.8486 33.6115 44.9935L31.7228 45.5739C31.4168 45.666 31.1835 45.9134 31.1127 46.2223C31.0414 46.5308 31.1426 46.8535 31.3784 47.0678C31.6142 47.2827 31.9476 47.3556 32.2532 47.26ZM55.312 43.7991C55.805 43.7991 56.2052 43.4035 56.2052 42.9162C56.2052 42.4284 55.805 42.0332 55.312 42.0332H53.9722C53.4787 42.0332 53.0789 42.4284 53.0789 42.9162C53.0789 43.4035 53.4787 43.7991 53.9722 43.7991H55.312ZM54.509 38.5718L52.6204 39.1523H52.6199C52.1488 39.2966 51.8857 39.7918 52.0322 40.2574C52.1787 40.7231 52.6792 40.9832 53.1502 40.8384L55.0389 40.2579C55.3454 40.1658 55.5782 39.9185 55.6495 39.61C55.7207 39.3011 55.619 38.9783 55.3833 38.764C55.148 38.5497 54.814 38.4763 54.509 38.5718ZM53.0819 45.2866C52.6159 45.1275 52.107 45.3729 51.9465 45.8336C51.786 46.2948 52.0337 46.7973 52.5002 46.956L54.3699 47.5931C54.6725 47.698 55.0079 47.6345 55.2502 47.4275C55.4924 47.2201 55.6036 46.9008 55.5423 46.5899C55.4805 46.2795 55.2552 46.0252 54.9521 45.9237L53.0819 45.2866ZM51.2925 42.9162C51.2925 38.597 47.7505 35.0957 43.3811 35.0957C39.0137 35.1006 35.4747 38.5989 35.4697 42.9162C35.4697 47.2354 39.0117 50.7366 43.3811 50.7366C47.7505 50.7366 51.2925 47.2354 51.2925 42.9162ZM32.3922 38.2388C31.9257 38.0801 31.4173 38.325 31.2563 38.7862C31.0958 39.2469 31.3435 39.7494 31.8101 39.9086L33.6802 40.5452C34.1463 40.7043 34.6547 40.4595 34.8157 39.9983C34.9762 39.5371 34.7285 39.0345 34.2624 38.8759L32.3922 38.2388ZM32.79 42.0332H31.4502C30.9567 42.0332 30.557 42.4284 30.557 42.9162C30.557 43.4035 30.9567 43.7991 31.4502 43.7991H32.79C33.283 43.7991 33.6832 43.4035 33.6832 42.9162C33.6832 42.4284 33.283 42.0332 32.79 42.0332Z" fill="url(#paint1_linear_16_2279)"/>
</g>
<defs>
<linearGradient id="paint0_linear_16_2279" x1="43.4999" y1="1.86691" x2="43.4999" y2="82.3826" gradientUnits="userSpaceOnUse">
<stop stop-color="#E8F5FF"/>
<stop offset="1" stop-color="#B4DFFF"/>
</linearGradient>
<linearGradient id="paint1_linear_16_2279" x1="43.3811" y1="16.4609" x2="43.3811" y2="69.3714" gradientUnits="userSpaceOnUse">
<stop stop-color="#466AFF"/>
<stop offset="1" stop-color="#06B8FF"/>
</linearGradient>
<clipPath id="clip0_16_2279">
<rect width="53.5254" height="52.9102" fill="white" transform="translate(16.6523 16.4609)"/>
</clipPath>
</defs>
</svg>
