<svg width="85" height="88" viewBox="0 0 85 88" fill="none" xmlns="http://www.w3.org/2000/svg">
<path d="M82.1776 19.6484C81.9409 15.2918 80.1627 11.178 77.1824 8.09246C74.2021 5.00697 70.2286 3.16593 66.0205 2.92087C50.3529 2.0042 34.6478 2.0042 18.9802 2.92087C14.7721 3.16607 10.7985 5.00712 7.81815 8.09257C4.83776 11.178 3.05929 15.2917 2.82227 19.6484C1.93685 35.8693 1.93685 52.1289 2.82227 68.3498C3.05926 72.7065 4.83772 76.8202 7.81812 79.9056C10.7985 82.991 14.7721 84.832 18.9802 85.0771C34.6478 85.9963 50.353 85.9963 66.0205 85.0771C70.2286 84.8321 74.2021 82.9911 77.1824 79.9057C80.1627 76.8202 81.9409 72.7064 82.1776 68.3498C83.063 52.1289 83.063 35.8693 82.1776 19.6484Z" fill="url(#paint0_linear_16_2117)"/>
<path fill-rule="evenodd" clip-rule="evenodd" d="M56.6666 44.4583C53.9758 44.4583 51.3375 43.6876 49.0435 42.2316C46.7496 40.7755 44.8893 38.6909 43.6687 36.2083H25.677C24.6208 36.2067 23.6083 35.7716 22.8614 34.9983C22.1145 34.2251 21.6942 33.1768 21.6926 32.0833V26.5833C21.6942 25.4898 22.1145 24.4416 22.8614 23.6683C23.6083 22.8951 24.6208 22.46 25.677 22.4583H43.6687C44.7383 20.2576 46.3207 18.3673 48.2728 16.9583H23.0208C21.2597 16.959 19.5711 17.6836 18.3258 18.9727C17.0806 20.2619 16.3808 22.0102 16.3801 23.8333V56.8333C16.3808 58.6565 17.0806 60.4048 18.3258 61.6939C19.5711 62.9831 21.2597 63.7077 23.0208 63.7083H24.3489V60.94C23.3367 60.8218 22.4066 60.3071 21.7494 59.5015C21.0921 58.6959 20.7574 57.6605 20.8141 56.6076C20.8707 55.5548 21.3143 54.5642 22.0539 53.8392C22.7935 53.1141 23.773 52.7095 24.7916 52.7083H49.5832C50.6018 52.7095 51.5813 53.1141 52.3209 53.8392C53.0605 54.5642 53.5041 55.5548 53.5608 56.6076C53.6174 57.6605 53.2827 58.6959 52.6255 59.5015C51.9682 60.3071 51.0381 60.8218 50.026 60.94V63.7083H51.3541C53.1151 63.7077 54.8038 62.9831 56.049 61.6939C57.2942 60.4048 57.994 58.6565 57.9947 56.8333V44.4033C57.6051 44.44 57.1447 44.4583 56.6666 44.4583ZM28.3332 49.0417C28.0706 49.0417 27.8138 48.961 27.5954 48.8099C27.377 48.6588 27.2067 48.4441 27.1062 48.1929C27.0057 47.9416 26.9794 47.6651 27.0306 47.3984C27.0819 47.1317 27.2084 46.8867 27.3941 46.6944C27.5799 46.5021 27.8165 46.3711 28.0741 46.3181C28.3318 46.265 28.5988 46.2923 28.8415 46.3963C29.0842 46.5004 29.2916 46.6766 29.4375 46.9028C29.5835 47.1289 29.6614 47.3947 29.6614 47.6667C29.6588 48.0305 29.5181 48.3787 29.2696 48.636C29.021 48.8933 28.6847 49.039 28.3332 49.0417ZM28.3332 41.7083C28.0706 41.7083 27.8138 41.6277 27.5954 41.4766C27.377 41.3255 27.2067 41.1108 27.1062 40.8595C27.0057 40.6083 26.9794 40.3318 27.0306 40.0651C27.0819 39.7984 27.2084 39.5534 27.3941 39.3611C27.5799 39.1688 27.8165 39.0378 28.0741 38.9848C28.3318 38.9317 28.5988 38.9589 28.8415 39.063C29.0842 39.1671 29.2916 39.3433 29.4375 39.5694C29.5835 39.7955 29.6614 40.0614 29.6614 40.3333C29.6588 40.6972 29.5181 41.0454 29.2696 41.3027C29.021 41.56 28.6847 41.7057 28.3332 41.7083ZM37.1874 49.0417C36.9247 49.0417 36.668 48.961 36.4495 48.8099C36.2311 48.6588 36.0609 48.4441 35.9604 48.1929C35.8599 47.9416 35.8336 47.6651 35.8848 47.3984C35.9361 47.1317 36.0625 46.8867 36.2483 46.6944C36.434 46.5021 36.6707 46.3711 36.9283 46.3181C37.1859 46.265 37.453 46.2923 37.6957 46.3963C37.9383 46.5004 38.1458 46.6766 38.2917 46.9028C38.4376 47.1289 38.5155 47.3947 38.5155 47.6667C38.513 48.0305 38.3722 48.3787 38.1237 48.636C37.8752 48.8933 37.5389 49.039 37.1874 49.0417ZM37.1874 41.7083C36.9247 41.7083 36.668 41.6277 36.4495 41.4766C36.2311 41.3255 36.0609 41.1108 35.9604 40.8595C35.8599 40.6083 35.8336 40.3318 35.8848 40.0651C35.9361 39.7984 36.0625 39.5534 36.2483 39.3611C36.434 39.1688 36.6707 39.0378 36.9283 38.9848C37.1859 38.9317 37.453 38.9589 37.6957 39.063C37.9383 39.1671 38.1458 39.3433 38.2917 39.5694C38.4376 39.7955 38.5155 40.0614 38.5155 40.3333C38.513 40.6972 38.3722 41.0454 38.1237 41.3027C37.8752 41.56 37.5389 41.7057 37.1874 41.7083ZM46.0416 49.0417C45.7789 49.0417 45.5221 48.961 45.3037 48.8099C45.0853 48.6588 44.9151 48.4441 44.8146 48.1929C44.714 47.9416 44.6877 47.6651 44.739 47.3984C44.7902 47.1317 44.9167 46.8867 45.1025 46.6944C45.2882 46.5021 45.5248 46.3711 45.7825 46.3181C46.0401 46.265 46.3071 46.2923 46.5498 46.3963C46.7925 46.5004 46.9999 46.6766 47.1459 46.9028C47.2918 47.1289 47.3697 47.3947 47.3697 47.6667C47.3672 48.0305 47.2264 48.3787 46.9779 48.636C46.7294 48.8933 46.393 49.039 46.0416 49.0417ZM42.6062 25.2083H25.677C25.3255 25.211 24.9892 25.3567 24.7407 25.614C24.4922 25.8713 24.3514 26.2195 24.3489 26.5833V32.0833C24.3514 32.4472 24.4922 32.7954 24.7407 33.0527C24.9892 33.31 25.3255 33.4557 25.677 33.4583H42.6062C41.8742 30.7605 41.8742 27.9061 42.6062 25.2083ZM49.5833 55.4583H24.7916C24.4394 55.4583 24.1016 55.6032 23.8525 55.8611C23.6034 56.1189 23.4635 56.4687 23.4635 56.8333C23.4635 57.198 23.6034 57.5478 23.8525 57.8056C24.1016 58.0635 24.4394 58.2083 24.7916 58.2083H27.0052V66.9167C27.0065 68.0103 27.4267 69.0587 28.1736 69.832C28.9206 70.6053 29.9332 71.0403 30.9896 71.0417H43.3854C44.4417 71.0403 45.4544 70.6053 46.2013 69.832C46.9483 69.0587 47.3685 68.0103 47.3698 66.9167V58.2083H49.5833C49.9356 58.2083 50.2734 58.0635 50.5224 57.8056C50.7715 57.5478 50.9114 57.198 50.9114 56.8333C50.9114 56.4687 50.7715 56.1189 50.5224 55.8611C50.2734 55.6032 49.9356 55.4583 49.5833 55.4583ZM48.2145 20.5829C50.4562 18.2621 53.4965 16.9583 56.6666 16.9583C59.8354 16.9632 62.873 18.2685 65.1136 20.5882C67.3542 22.908 68.6151 26.0528 68.6198 29.3333C68.5816 32.6031 67.3101 35.7279 65.0766 38.0401C62.8432 40.3524 59.825 41.6689 56.6666 41.7083C53.4965 41.7083 50.4562 40.4046 48.2145 38.0838C45.9729 35.763 44.7135 32.6154 44.7135 29.3333C44.7135 26.0513 45.9729 22.9036 48.2145 20.5829ZM57.6058 28.3611C57.3567 28.1032 57.0189 27.9583 56.6666 27.9583H54.5062C54.625 27.1811 55.0113 26.4745 55.5939 25.969C56.1765 25.4636 56.916 25.1934 57.676 25.2083C58.3416 25.2017 58.9927 25.4101 59.5386 25.8044C60.0845 26.1987 60.4981 26.7593 60.7219 27.4083C60.7764 27.5809 60.8635 27.7405 60.978 27.878C61.0925 28.0154 61.2322 28.1281 61.389 28.2094C61.5458 28.2906 61.7166 28.3389 61.8915 28.3515C62.0665 28.364 62.2421 28.3405 62.4082 28.2824C62.5743 28.2242 62.7277 28.1326 62.8594 28.0128C62.9911 27.8929 63.0985 27.7472 63.1756 27.5841C63.2526 27.421 63.2976 27.2438 63.3081 27.0625C63.3185 26.8813 63.2942 26.6998 63.2364 26.5283C62.7941 25.2205 61.9333 24.1083 60.7969 23.3762C59.6605 22.6441 58.3165 22.336 56.9878 22.5028C55.659 22.6697 54.4252 23.3016 53.4908 24.2938C52.5564 25.286 51.9775 26.5789 51.85 27.9583H51.3541C51.0019 27.9583 50.6641 28.1032 50.415 28.3611C50.166 28.6189 50.026 28.9687 50.026 29.3333C50.026 29.698 50.166 30.0477 50.415 30.3056C50.6641 30.5635 51.0019 30.7083 51.3541 30.7083H51.85C51.9736 32.2162 52.6422 33.6203 53.7223 34.6399C54.8024 35.6595 56.2144 36.2197 57.676 36.2083C58.82 36.2137 59.9405 35.873 60.9 35.2281C61.8595 34.5832 62.6161 33.6623 63.0771 32.5783C63.2111 32.2441 63.2129 31.8687 63.0821 31.5331C62.9513 31.1974 62.6983 30.9285 62.3777 30.7842C62.0571 30.6399 61.6946 30.6318 61.3683 30.7616C61.042 30.8915 60.778 31.1489 60.6333 31.4783C60.3827 32.0726 59.9686 32.5773 59.4427 32.9294C58.9167 33.2815 58.3023 33.4655 57.676 33.4583C56.916 33.4733 56.1765 33.2031 55.5939 32.6976C55.0113 32.1922 54.625 31.4856 54.5062 30.7083H56.6666C57.0189 30.7083 57.3567 30.5635 57.6058 30.3056C57.8549 30.0477 57.9948 29.698 57.9948 29.3333C57.9948 28.9687 57.8549 28.6189 57.6058 28.3611Z" fill="url(#paint1_linear_16_2117)"/>
<defs>
<linearGradient id="paint0_linear_16_2117" x1="42.4999" y1="2.23282" x2="42.4999" y2="83.7686" gradientUnits="userSpaceOnUse">
<stop stop-color="#FFEDFF"/>
<stop offset="1" stop-color="#FFC3F9"/>
</linearGradient>
<linearGradient id="paint1_linear_16_2117" x1="42.4999" y1="16.9583" x2="42.4999" y2="71.0417" gradientUnits="userSpaceOnUse">
<stop stop-color="#B444FF"/>
<stop offset="1" stop-color="#F582FF"/>
</linearGradient>
</defs>
</svg>
